<?xml version="1.0" encoding="UTF-8"?>
<!DOCTYPE svg PUBLIC "-//W3C//DTD SVG 1.1//EN" "http://www.w3.org/Graphics/SVG/1.1/DTD/svg11.dtd">
<svg version="1.1" xmlns="http://www.w3.org/2000/svg" xmlns:xlink="http://www.w3.org/1999/xlink" x="0" y="0" width="1139.47" height="1073.61" viewBox="0, 0, 1139.47, 1073.61">
  <defs>
    <clipPath id="Clip_1">
      <path d="M603.436,1073.61 L1136.686,1073.61 L1136.686,578.233 L603.436,578.233 z"/>
    </clipPath>
    <clipPath id="Clip_2">
      <path d="M-0,1073.61 L538.166,1073.61 L538.166,578.233 L-0,578.233 z"/>
    </clipPath>
  </defs>
  <g id="Layer_1">
    <path d="M823.339,407.275 L824.832,447.429 L865.141,447.429 L860.165,406.777 z" fill="#F9DAB8"/>
    <path d="M823.339,407.275 L824.832,447.429 L865.141,447.429 L860.165,406.777 L823.339,407.275 z" fill-opacity="0" stroke="#1A1919" stroke-width="5.643" stroke-linecap="round" stroke-linejoin="round"/>
    <path d="M1053.251,406.28 L1049.021,447.429 L1086.095,447.429 L1087.588,406.28 z" fill="#F9DAB8"/>
    <path d="M1053.251,406.28 L1049.021,447.429 L1086.095,447.429 L1087.588,406.28 L1053.251,406.28 z" fill-opacity="0" stroke="#1A1919" stroke-width="5.574" stroke-linecap="round" stroke-linejoin="round"/>
    <path d="M1055.117,414.367 L1084.602,413.496 L1083.98,427.803 z" fill="#F5C08E"/>
    <path d="M826.201,414.367 L855.686,413.496 L855.064,427.803 z" fill="#F5C08E"/>
    <g>
      <path d="M1086.755,122.621 C1077.002,124.666 1067.666,136.497 1057.942,134.417 C1056.791,134.176 1060.17,140.882 1060.384,141.221 C1061.709,143.38 1062.884,145.248 1064.849,146.939 C1068.427,150.038 1073.931,152.993 1078.81,152.802 C1075.618,163.393 1060.117,162.372 1051.543,162.526 C1053.057,164.633 1063.48,170.891 1066.355,170.895 C1057.96,181.028 1037.581,180.616 1026.664,176.703 C1013.29,171.909 1001.034,162.158 992.679,150.734 C988.938,145.62 986.135,139.805 983.06,134.285 C977.495,124.293 970.096,115.65 964.847,105.371 C959.076,94.049 951.876,79.172 955.252,66.313 C958.394,54.311 966.976,44.755 973.29,34.378 C975.286,31.101 980.41,26.103 978.978,21.685 C977.839,18.17 975.461,18.232 973.189,20.273 C967.662,25.242 967.66,30.736 957.911,27.701 C942.201,22.812 966.165,6.699 971.725,4.461 C979.604,1.293 987.051,2.859 993.748,7.171 C1001.119,11.92 1003.448,18.757 1004.805,26.98 C1005.924,33.807 1004.494,41.591 1007.312,48.075 C1010.839,56.178 1012.522,65.12 1016.146,73.385 C1028.532,101.712 1055.226,122.335 1086.755,122.621" fill="#654628"/>
      <path d="M1086.755,122.621 C1077.002,124.666 1067.666,136.497 1057.942,134.417 C1056.791,134.176 1060.17,140.882 1060.384,141.221 C1061.709,143.38 1062.884,145.248 1064.849,146.939 C1068.427,150.038 1073.931,152.993 1078.81,152.802 C1075.618,163.393 1060.117,162.372 1051.543,162.526 C1053.057,164.633 1063.48,170.891 1066.355,170.895 C1057.96,181.028 1037.581,180.616 1026.664,176.703 C1013.29,171.909 1001.034,162.158 992.679,150.734 C988.938,145.62 986.135,139.805 983.06,134.285 C977.495,124.293 970.096,115.65 964.847,105.371 C959.076,94.049 951.876,79.172 955.252,66.313 C958.394,54.311 966.976,44.755 973.29,34.378 C975.286,31.101 980.41,26.103 978.978,21.685 C977.839,18.17 975.461,18.232 973.189,20.273 C967.662,25.242 967.66,30.736 957.911,27.701 C942.201,22.812 966.165,6.699 971.725,4.461 C979.604,1.293 987.051,2.859 993.748,7.171 C1001.119,11.92 1003.448,18.757 1004.805,26.98 C1005.924,33.807 1004.494,41.591 1007.312,48.075 C1010.839,56.178 1012.522,65.12 1016.146,73.385 C1028.532,101.712 1055.226,122.335 1086.755,122.621 z" fill-opacity="0" stroke="#1A1919" stroke-width="5.574" stroke-linecap="round" stroke-linejoin="round"/>
      <path d="M1033.867,147.27 C1028.5,157.686 1018.634,163.292 1011.833,159.785 C1005.008,156.286 1003.837,145.001 1009.199,134.585 C1014.546,124.165 1024.417,118.562 1031.229,122.057 C1038.039,125.56 1039.223,136.844 1033.867,147.27" fill="#F9DAB8"/>
      <path d="M1033.867,147.27 C1028.5,157.686 1018.634,163.292 1011.833,159.785 C1005.008,156.286 1003.837,145.001 1009.199,134.585 C1014.546,124.165 1024.417,118.562 1031.229,122.057 C1038.039,125.56 1039.223,136.844 1033.867,147.27 z" fill-opacity="0" stroke="#1A1919" stroke-width="5.772" stroke-linecap="round" stroke-linejoin="round"/>
      <path d="M880.23,136.368 C883.496,147.621 892.092,154.995 899.465,152.864 C906.813,150.734 910.128,139.883 906.873,128.629 C903.594,117.374 894.988,109.991 887.621,112.127 C880.279,114.262 876.966,125.113 880.23,136.368" fill="#F9DAB8"/>
      <path d="M880.23,136.368 C883.496,147.621 892.092,154.995 899.465,152.864 C906.813,150.734 910.128,139.883 906.873,128.629 C903.594,117.374 894.988,109.991 887.621,112.127 C880.279,114.262 876.966,125.113 880.23,136.368 z" fill-opacity="0" stroke="#1A1919" stroke-width="5.772" stroke-linecap="round" stroke-linejoin="round"/>
      <path d="M1021.402,133.985 C1022.646,132.492 1027.623,127.516 1028.12,134.234 C1028.618,140.952 1024.885,149.661 1018.914,150.407 C1012.942,151.154 1021.402,133.985 1021.402,133.985" fill="#F5C08E"/>
      <path d="M893.772,126.028 C892.845,124.321 888.935,118.47 887.135,124.961 C885.335,131.453 887.299,140.724 893.01,142.621 C898.721,144.519 893.772,126.028 893.772,126.028" fill="#F5C08E"/>
      <path d="M987.584,259.084 L924.91,259.084 L926.786,189.839 L984.318,189.7 z" fill="#F9DAB8"/>
      <path d="M987.584,259.084 L924.91,259.084 L926.786,189.839 L984.318,189.7 L987.584,259.084 z" fill-opacity="0" stroke="#1A1919" stroke-width="5.574" stroke-linecap="round" stroke-linejoin="round"/>
      <g>
        <path d="M988.149,324.659 L925.475,324.659 L925.475,258.651 L988.149,258.651 z" fill="#FFFFFE"/>
        <path d="M988.149,324.659 L925.475,324.659 L925.475,258.651 L988.149,258.651 z" fill-opacity="0" stroke="#1A1919" stroke-width="3.448" stroke-linecap="round" stroke-linejoin="round"/>
      </g>
      <path d="M937.302,255.494 L948.581,271.088 L964.838,270.756 L974.791,254.168 L964.968,240.316 L950.674,240.316 z" fill="#636463"/>
      <path d="M937.302,255.494 L948.581,271.088 L964.838,270.756 L974.791,254.168 L964.968,240.316 L950.674,240.316 L937.302,255.494 z" fill-opacity="0" stroke="#1A1919" stroke-width="5.574" stroke-linecap="round" stroke-linejoin="round"/>
      <path d="M948.24,270.34 L935.043,355.005 L955.513,393.146 L972.888,353.035 L964.087,270.34 z" fill="#636463"/>
      <path d="M948.24,270.34 L935.043,355.005 L955.513,393.146 L972.888,353.035 L964.087,270.34 L948.24,270.34 z" fill-opacity="0" stroke="#1A1919" stroke-width="5.574" stroke-linecap="round" stroke-linejoin="round"/>
      <path d="M926.091,210.165 L951.803,239.948 L918.683,275.635 L915.336,209.489 L925.082,202.292 z" fill="#FFFFFE"/>
      <path d="M926.091,210.165 L951.803,239.948 L918.683,275.635 L915.336,209.489 L925.082,202.292 L926.091,210.165 z" fill-opacity="0" stroke="#1A1919" stroke-width="5.574" stroke-linecap="round" stroke-linejoin="round"/>
      <path d="M985.156,210.165 L959.446,239.948 L992.568,275.635 L995.628,210.478 L986.167,202.292 z" fill="#FFFFFE"/>
      <path d="M985.156,210.165 L959.446,239.948 L992.568,275.635 L995.628,210.478 L986.167,202.292 L985.156,210.165 z" fill-opacity="0" stroke="#1A1919" stroke-width="5.574" stroke-linecap="round" stroke-linejoin="round"/>
      <path d="M955.429,447.429 L1050.582,447.429 L1052.868,409.266 L1099.046,409.88 L1080.124,254.996 L1067.714,242.44 L994.56,207.447 L955.713,356.982 z" fill="#E15D43"/>
      <path d="M956.708,352.535 C965.417,327.902 998.275,278.302 1029.24,296.482 L1016.923,220.41" fill-opacity="0" stroke="#1A1919" stroke-width="5.574" stroke-linecap="round" stroke-linejoin="round"/>
      <path d="M955.429,447.429 L1050.582,447.429 L1052.023,411.754 L1099.046,409.88 L1080.124,254.996 L1067.714,242.44 L993.93,208.703 L955.713,356.982 L955.429,447.429 z" fill-opacity="0" stroke="#1A1919" stroke-width="5.574" stroke-linecap="round" stroke-linejoin="round"/>
      <path d="M1061.214,285.352 C1058.953,300.938 1052.47,398.543 1052.023,411.754" fill-opacity="0" stroke="#1A1919" stroke-width="5.574" stroke-linecap="round" stroke-linejoin="round"/>
      <path d="M953.736,447.429 L858.583,447.429 L856.297,409.266 L810.119,409.88 L829.041,254.996 L841.451,242.44 L914.605,207.447 L953.452,356.982 z" fill="#E15D43"/>
      <path d="M952.457,352.535 C943.748,327.902 910.89,278.302 879.925,296.482 L892.242,220.41" fill-opacity="0" stroke="#1A1919" stroke-width="5.574" stroke-linecap="round" stroke-linejoin="round"/>
      <path d="M953.736,447.429 L858.583,447.429 L857.142,411.754 L810.119,409.88 L829.041,254.996 L841.451,242.44 L915.235,208.703 L953.452,356.982 L953.736,447.429 z" fill-opacity="0" stroke="#1A1919" stroke-width="5.574" stroke-linecap="round" stroke-linejoin="round"/>
      <path d="M847.952,285.352 C850.213,300.938 856.695,398.543 857.143,411.754" fill-opacity="0" stroke="#1A1919" stroke-width="5.574" stroke-linecap="round" stroke-linejoin="round"/>
      <path d="M938.544,200.669 C942.154,203.006 963.969,218.308 977.111,214.354 C979.6,212.861 980.346,211.368 982.088,208.88 L981.093,194.2 z" fill="#F5C08E"/>
      <path d="M1018.852,131.355 C1014.74,173.974 983.486,205.833 949.05,202.508 C914.591,199.184 889.997,161.935 894.108,119.316 C898.231,76.696 929.472,44.843 963.932,48.167 C998.378,51.485 1022.965,88.735 1018.852,131.355" fill="#F9DAB8"/>
      <path d="M1018.852,131.355 C1014.74,173.974 983.486,205.833 949.05,202.508 C914.591,199.184 889.997,161.935 894.108,119.316 C898.231,76.696 929.472,44.843 963.932,48.167 C998.378,51.485 1022.965,88.735 1018.852,131.355 z" fill-opacity="0" stroke="#1A1919" stroke-width="5.574" stroke-linecap="round" stroke-linejoin="round"/>
      <path d="M997.54,150.883 C997.173,154.714 992.672,157.405 987.486,156.907 C982.3,156.411 978.394,152.903 978.766,149.067 C979.141,145.251 983.637,142.547 988.82,143.053 C994.002,143.547 997.907,147.059 997.54,150.883" fill="#F0AFA6"/>
      <path d="M925.852,146.403 C925.936,150.246 921.778,153.444 916.572,153.557 C911.36,153.665 907.072,150.643 906.998,146.79 C906.922,142.951 911.072,139.747 916.278,139.642 C921.486,139.529 925.772,142.562 925.852,146.403" fill="#F0AFA6"/>
      <path d="M949.302,143.821 C944.361,144.649 944.092,147.351 947.053,150.971" fill-opacity="0" stroke="#1A1919" stroke-width="5.772" stroke-linecap="round" stroke-linejoin="round"/>
      <path d="M920.893,92.441 C920.951,92.783 929.668,85.608 930.387,84.945 C933.072,82.471 936.188,78.593 939.265,76.822 C941.3,89.908 948.903,99.801 958.866,107.86 C958.203,99.233 959.676,89.407 962.847,85.299 C966.523,91.928 976.968,104.773 984.04,107.501 C984.976,103.656 986.565,99.894 989.646,97.478 C996.018,103.862 1001.916,114.627 1009.781,118.801 C1011.68,115.957 1015.15,114.845 1016.836,117.076 C1018.929,119.825 1019.479,125.198 1019.244,128.429 C1032.954,110.376 1033.726,82.675 1023.952,62.052 C1015.356,43.917 997.493,22.753 975.039,25.253 C973.785,25.397 960.627,28.286 961.057,29.417 C957.841,20.92 937.467,24.343 929.652,27.823 C916.16,33.822 904.144,41.582 896.532,54.498 C892.481,61.371 889.003,68.758 887.463,76.625 C884.88,89.795 886.688,104.938 893.931,116.579 C893.303,115.56 896.172,107.487 896.734,106.177 C897.974,103.294 899.949,100.016 901.798,97.464 C907.163,90.025 914.019,81.831 922.742,78.268 C923.338,83.664 920.003,86.656 920.893,92.441" fill="#654628"/>
      <path d="M920.893,92.441 C920.951,92.783 929.668,85.608 930.387,84.945 C933.072,82.471 936.188,78.593 939.265,76.822 C941.3,89.908 948.903,99.801 958.866,107.86 C958.203,99.233 959.676,89.407 962.847,85.299 C966.523,91.928 976.968,104.773 984.04,107.501 C984.976,103.656 986.565,99.894 989.646,97.478 C996.018,103.862 1001.916,114.627 1009.781,118.801 C1011.68,115.957 1015.15,114.845 1016.836,117.076 C1018.929,119.825 1019.479,125.198 1019.244,128.429 C1032.954,110.376 1033.726,82.675 1023.952,62.052 C1015.356,43.917 997.493,22.753 975.039,25.253 C973.785,25.397 960.627,28.286 961.057,29.417 C957.841,20.92 937.467,24.343 929.652,27.823 C916.16,33.822 904.144,41.582 896.532,54.498 C892.481,61.371 889.003,68.758 887.463,76.625 C884.88,89.795 886.688,104.938 893.931,116.579 C893.303,115.56 896.172,107.487 896.734,106.177 C897.974,103.294 899.949,100.016 901.798,97.464 C907.163,90.025 914.019,81.831 922.742,78.268 C923.338,83.664 920.003,86.656 920.893,92.441 z" fill-opacity="0" stroke="#1A1919" stroke-width="5.574" stroke-linecap="round" stroke-linejoin="round"/>
      <path d="M953.203,25.433 C953.724,27.139 955.586,28.058 957.106,29.068 C957.592,29.391 961.051,31.556 961.624,30.591 C964.639,25.512 977.537,22.017 981.656,25.183 C982.482,24.215 981.394,20.918 981.285,19.775 C981.1,17.834 980.313,16.162 978.875,14.892 C977.803,13.947 976.501,13.296 975.148,12.861 C972.047,11.864 968.62,11.926 965.457,12.577 C959.674,13.766 952.447,17.901 953.075,24.78 C953.096,25.01 953.139,25.227 953.203,25.433" fill="#AEDBD9"/>
      <path d="M953.203,25.433 C953.724,27.139 955.586,28.058 957.106,29.068 C957.592,29.391 961.051,31.556 961.624,30.591 C964.639,25.512 977.537,22.017 981.656,25.183 C982.482,24.215 981.394,20.918 981.285,19.775 C981.1,17.834 980.313,16.162 978.875,14.892 C977.803,13.947 976.501,13.296 975.148,12.861 C972.047,11.864 968.62,11.926 965.457,12.577 C959.674,13.766 952.447,17.901 953.075,24.78 C953.096,25.01 953.139,25.227 953.203,25.433 z" fill-opacity="0" stroke="#1A1919" stroke-width="5.574" stroke-linecap="round" stroke-linejoin="round"/>
      <path d="M893.916,83.334 C893.739,90.2 892.917,96.675 896.109,102.729" fill-opacity="0" stroke="#1A1919" stroke-width="5.574" stroke-linecap="round" stroke-linejoin="round"/>
      <path d="M930.835,108.692 C927.596,106.116 914.224,104.53 909.92,109.44" fill-opacity="0" stroke="#1A1919" stroke-width="3.981" stroke-linecap="round" stroke-linejoin="round"/>
      <path d="M972.406,111.923 C975.619,109.849 989.261,108.9 993.224,114.091" fill-opacity="0" stroke="#1A1919" stroke-width="3.981" stroke-linecap="round" stroke-linejoin="round"/>
      <path d="M995.408,134.183 C994.088,123.503 977.38,122.212 976.208,132.465" fill-opacity="0" stroke="#1A1919" stroke-width="5.309" stroke-linecap="round" stroke-linejoin="round"/>
      <path d="M929.89,131.582 C928.566,120.894 911.86,119.603 910.692,129.856" fill-opacity="0" stroke="#1A1919" stroke-width="5.309" stroke-linecap="round" stroke-linejoin="round"/>
      <path d="M975.024,168.882 C974.668,163.194 930.524,162.315 930.422,169.982 C930.09,194.338 976.519,192.777 975.024,168.882" fill="#FFFFFE"/>
      <path d="M934.606,176.623 C946.567,173.139 960.931,173.215 971.616,177.747 C965.108,191.348 939.946,190.046 933.451,176.697" fill="#F0AFA6"/>
      <path d="M975.024,168.882 C974.668,163.194 930.524,162.315 930.422,169.982 C930.09,194.338 976.519,192.777 975.024,168.882 z" fill-opacity="0" stroke="#1A1919" stroke-width="5.309" stroke-linecap="round" stroke-linejoin="round"/>
      <path d="M981.425,76.674 C980.634,83.756 987.506,95.038 992.706,99.898" fill-opacity="0" stroke="#1A1919" stroke-width="5.574" stroke-linecap="round" stroke-linejoin="round"/>
      <path d="M1020.574,95.917 C1021.107,102.612 1018.362,108.603 1015.93,114.495" fill-opacity="0" stroke="#1A1919" stroke-width="5.574" stroke-linecap="round" stroke-linejoin="round"/>
      <g>
        <path d="M1039.327,349.834 L1000.999,349.834 L1000.999,328.673 L1039.327,328.673 z" fill="#FFFFFE"/>
        <path d="M1039.327,349.834 L1000.999,349.834 L1000.999,328.673 L1039.327,328.673 z" fill-opacity="0" stroke="#1A1919" stroke-width="3.981" stroke-linecap="round" stroke-linejoin="round"/>
      </g>
      <path d="M995.029,317.54 L1045.789,317.54" fill-opacity="0" stroke="#1A1919" stroke-width="5.574" stroke-linecap="round" stroke-linejoin="round"/>
      <path d="M1036.498,298.464 C1036.498,296.913 1035.229,295.643 1033.677,295.643 L1033.017,295.643 C1031.465,295.643 1030.196,296.913 1030.196,298.464 L1030.196,316.212 L1036.498,316.212 z" fill="#FFFFFE"/>
      <path d="M1036.498,298.464 C1036.498,296.913 1035.229,295.643 1033.677,295.643 L1033.017,295.643 C1031.465,295.643 1030.196,296.913 1030.196,298.464 L1030.196,316.212 L1036.498,316.212 L1036.498,298.464 z" fill-opacity="0" stroke="#1A1919" stroke-width="3.981"/>
      <path d="M1040.812,325.335 C1040.812,326.886 1039.543,328.156 1037.991,328.156 L1037.331,328.156 C1035.779,328.156 1034.51,326.886 1034.51,325.335 L1034.51,298.464 C1034.51,296.913 1035.779,295.643 1037.331,295.643 L1037.991,295.643 C1039.543,295.643 1040.812,296.913 1040.812,298.464 z" fill="#FFFFFE"/>
      <path d="M1040.812,325.335 C1040.812,326.886 1039.543,328.156 1037.991,328.156 L1037.331,328.156 C1035.779,328.156 1034.51,326.886 1034.51,325.335 L1034.51,298.464 C1034.51,296.913 1035.779,295.643 1037.331,295.643 L1037.991,295.643 C1039.543,295.643 1040.812,296.913 1040.812,298.464 L1040.812,325.335 z" fill-opacity="0" stroke="#1A1919" stroke-width="3.981"/>
      <path d="M1017.26,341.26 C1017.26,342.811 1015.991,344.081 1014.439,344.081 L1011.453,344.081 C1009.902,344.081 1008.633,342.811 1008.633,341.26 L1008.633,338.274 C1008.633,336.723 1009.902,335.453 1011.453,335.453 L1014.439,335.453 C1015.991,335.453 1017.26,336.723 1017.26,338.274 z" fill="#777776"/>
      <path d="M1031.192,341.26 C1031.192,342.811 1029.923,344.081 1028.371,344.081 L1025.385,344.081 C1023.834,344.081 1022.565,342.811 1022.565,341.26 L1022.565,338.274 C1022.565,336.723 1023.834,335.453 1025.385,335.453 L1028.371,335.453 C1029.923,335.453 1031.192,336.723 1031.192,338.274 z" fill="#777776"/>
      <path d="M650.987,447.585 L1136.687,447.585" fill-opacity="0" stroke="#1A1919" stroke-width="5.574" stroke-linecap="round" stroke-linejoin="round"/>
      <g>
        <path d="M798.113,436.508 L778.361,436.508 L778.361,317.501 L798.113,317.501 z" fill="#F5F0D1"/>
        <path d="M798.113,436.508 L778.361,436.508 L778.361,317.501 L798.113,317.501 z" fill-opacity="0" stroke="#1A1919" stroke-width="5.574" stroke-linecap="round" stroke-linejoin="round"/>
      </g>
      <g>
        <path d="M718.96,224.3 L853.534,224.3 L853.534,318.932 L718.96,318.932 z" fill="#F5F0D1"/>
        <path d="M718.96,224.3 L853.534,224.3 L853.534,318.932 L718.96,318.932 z" fill-opacity="0" stroke="#1A1919" stroke-width="5.574" stroke-linecap="round" stroke-linejoin="round"/>
      </g>
      <g>
        <path d="M696.44,337.574 L922.371,337.574 L922.371,498.164 L696.44,498.164 z" fill="#F5F0D1"/>
        <path d="M696.44,337.574 L922.371,337.574 L922.371,498.164 L696.44,498.164 z" fill-opacity="0" stroke="#1A1919" stroke-width="5.574" stroke-linecap="round" stroke-linejoin="round"/>
      </g>
      <g>
        <path d="M728.997,232.903 L843.498,232.903 L843.498,310.329 L728.997,310.329 z" fill="#A3C3CE"/>
        <path d="M728.997,232.903 L843.498,232.903 L843.498,310.329 L728.997,310.329 z" fill-opacity="0" stroke="#1A1919" stroke-width="5.574" stroke-linecap="round" stroke-linejoin="round"/>
      </g>
      <path d="M919.501,359.805 L696.439,359.805" fill-opacity="0" stroke="#1A1919" stroke-width="5.574" stroke-linecap="round" stroke-linejoin="round"/>
      <path d="M846.365,230.751 L789.629,230.751 L788.704,232.911 L731.864,284.069 L731.864,308.181 L779.292,308.181 L846.365,245.748 z" fill="#E2F3F8"/>
      <path d="M728.997,232.903 L843.498,232.903 L843.498,310.329 L728.997,310.329 z" fill-opacity="0" stroke="#1A1919" stroke-width="5.574" stroke-linecap="round" stroke-linejoin="round"/>
      <g>
        <path d="M347.423,178.903 L281.211,178.903 L281.211,245.436 L347.423,245.436 z" fill="#F9D6AE"/>
        <path d="M347.423,178.903 L281.211,178.903 L281.211,245.436 L347.423,245.436 z" fill-opacity="0" stroke="#1A1919" stroke-width="5.374" stroke-linecap="round" stroke-linejoin="round"/>
      </g>
      <path d="M298.402,192.178 C298.642,196.898 325.794,214.384 338.465,210.572 C340.305,208.732 344.783,203.773 344.783,203.773 L344.624,191.777 z" fill="#F3B882"/>
      <path d="M391.446,145.19 C386.636,155.176 377.43,160.714 370.918,157.567 C364.384,154.415 363.002,143.773 367.815,133.789 C372.626,123.803 381.823,118.265 388.35,121.416 C394.874,124.559 396.263,135.208 391.446,145.19" fill="#F9DAB8"/>
      <path d="M391.446,145.19 C386.636,155.176 377.43,160.714 370.918,157.567 C364.384,154.415 363.002,143.773 367.815,133.789 C372.626,123.803 381.823,118.265 388.35,121.416 C394.874,124.559 396.263,135.208 391.446,145.19 z" fill-opacity="0" stroke="#1A1919" stroke-width="5.374" stroke-linecap="round" stroke-linejoin="round"/>
      <path d="M241.682,134.596 C245.054,145.155 253.36,151.934 260.279,149.736 C267.178,147.541 270.055,137.204 266.693,126.636 C263.326,116.073 255.007,109.294 248.094,111.498 C241.2,113.687 238.325,124.033 241.682,134.596" fill="#F9DAB8"/>
      <path d="M241.682,134.596 C245.054,145.155 253.36,151.934 260.279,149.736 C267.178,147.541 270.055,137.204 266.693,126.636 C263.326,116.073 255.007,109.294 248.094,111.498 C241.2,113.687 238.325,124.033 241.682,134.596 z" fill-opacity="0" stroke="#1A1919" stroke-width="5.374" stroke-linecap="round" stroke-linejoin="round"/>
      <path d="M379.009,132.8 C380.166,131.325 384.822,126.39 385.492,132.851 C386.158,139.311 382.807,147.809 377.071,148.695 C371.336,149.582 379.009,132.8 379.009,132.8" fill="#F3B882"/>
      <path d="M254.433,126.175 C253.495,124.556 249.558,119.027 248.01,125.332 C246.459,131.64 248.608,140.52 254.166,142.188 C259.722,143.856 254.433,126.175 254.433,126.175" fill="#F3B882"/>
      <path d="M375.136,129.558 C372.28,169.971 343.494,200.854 310.843,198.544 C278.175,196.237 254.02,161.603 256.876,121.199 C259.738,80.799 288.525,49.916 321.186,52.223 C353.847,54.534 377.992,89.167 375.136,129.558" fill="#F9D6AE"/>
      <path d="M375.136,129.558 C372.28,169.971 343.494,200.854 310.843,198.544 C278.175,196.237 254.02,161.603 256.876,121.199 C259.738,80.799 288.525,49.916 321.186,52.223 C353.847,54.534 377.992,89.167 375.136,129.558 z" fill-opacity="0" stroke="#1A1919" stroke-width="5.374" stroke-linecap="round" stroke-linejoin="round"/>
      <path d="M335.369,108.199 C340.497,105.999 353.004,104.053 356.278,108.184 M292.531,106.449 C286.601,103.92 275.279,102.04 268.714,104.763 M308.95,132.693 C306.587,140.508 302.983,146.611 302.288,151.231 C304.768,153.279 305.927,153.824 311.575,154.91" fill-opacity="0" stroke="#1A1919" stroke-width="5.461" stroke-linecap="round" stroke-linejoin="round"/>
      <path d="M289.222,146.83 C288.978,150.299 284.8,152.841 279.878,152.488 C274.962,152.147 271.18,149.042 271.424,145.563 C271.683,142.092 275.855,139.553 280.764,139.899 C285.691,140.246 289.468,143.346 289.222,146.83" fill="#F0AFA6"/>
      <path d="M358.743,145.693 C358.499,149.173 354.312,151.707 349.404,151.362 C344.482,151.014 340.695,147.914 340.945,144.434 C341.19,140.955 345.37,138.421 350.289,138.772 C355.196,139.111 358.991,142.218 358.743,145.693" fill="#F0AFA6"/>
      <path d="M250.605,117.01 C250.325,116.689 250.05,116.412 249.787,116.187 C249.01,115.582 247.014,115.481 246.845,115.325 C244.894,113.5 244.095,113.586 242.963,110.392 C241.232,105.459 242.115,99.057 242.251,93.911 C242.41,87.919 240.105,82.165 240.372,76.368 C240.691,69.194 246.193,62.315 250.453,56.991 C249.54,56.792 245.195,56.08 244.525,57.03 C250.883,47.882 255.996,37.486 264.312,29.871 C272.355,22.49 281.118,23.875 290.889,20.834 C286.914,19.01 282.794,17.413 279.024,15.192 C287.542,13.127 296.335,13.564 304.998,12.164 C311.32,11.148 317.849,11.742 324.075,13.086 C325.152,13.32 339.25,16.93 339.336,17.37 C338.613,13.415 335.909,9.51 336.066,5.503 C345.656,4.974 354.425,11.811 360.246,18.808 C362.56,21.583 362.954,25.731 364.863,28.062 C367.763,31.642 371.907,29.543 376.854,29.83 C382.268,30.141 384.781,31.768 389.678,33.252 C388.665,32.941 381.418,36.449 380.501,37.312 C386.072,47.462 393.043,54.556 392.448,67.376 C391.183,66.755 388.642,66.609 387.368,65.931 C389.427,75.221 391.101,83.385 390.189,92.958 C389.176,92.299 386.681,91.881 385.629,90.93 C384.948,97.869 385.065,104.867 384.635,111.715 C384.176,119.105 379.551,123.186 377.436,129.824 C376.196,133.675 377.261,138.151 375.966,142.102 C376.914,130.043 376.121,120.682 371.68,110.205 C366.93,99.008 364.789,84.346 358.426,73.446 C356.342,74.248 353.208,86.147 352.057,88.323 C351.02,85.407 351.656,72.635 350.328,69.902 C341.027,88.687 321.239,106.657 300.01,110.492 C303.43,105.624 305.321,99.374 308.023,95.054 C302.578,98.099 294.867,104.859 287.803,103.666 C289.015,98.62 292.197,93.918 293.524,88.773 C287.946,90.14 283.538,97.591 278.635,99.874 C274.282,101.908 268.603,105.89 264.511,107.654 C264.54,105.532 264.803,97.155 265.051,95.026 C264.561,99.117 258.078,102.562 256.8,106.719 C255.157,112.049 256.762,117.975 254.073,123.296 C253.476,121.561 252.041,118.689 250.605,117.01" fill="#523E21"/>
    </g>
    <path d="M250.605,117.01 C250.325,116.689 250.05,116.412 249.787,116.187 C249.01,115.582 247.014,115.481 246.845,115.325 C244.894,113.5 244.095,113.586 242.963,110.392 C241.232,105.459 242.115,99.057 242.251,93.911 C242.41,87.919 240.105,82.165 240.372,76.368 C240.691,69.194 246.193,62.315 250.453,56.991 C249.54,56.792 245.195,56.08 244.525,57.03 C250.883,47.882 255.996,37.486 264.312,29.871 C272.355,22.49 281.118,23.875 290.889,20.834 C286.914,19.01 282.794,17.413 279.024,15.192 C287.542,13.127 296.335,13.564 304.998,12.164 C311.32,11.148 317.849,11.742 324.075,13.086 C325.152,13.32 339.25,16.93 339.336,17.37 C338.613,13.415 335.909,9.51 336.066,5.503 C345.656,4.974 354.425,11.811 360.246,18.808 C362.56,21.583 362.954,25.731 364.863,28.062 C367.763,31.642 371.907,29.543 376.854,29.83 C382.268,30.141 384.781,31.768 389.678,33.252 C388.665,32.941 381.418,36.449 380.501,37.312 C386.072,47.462 393.043,54.556 392.448,67.376 C391.183,66.755 388.642,66.609 387.368,65.931 C389.427,75.221 391.101,83.385 390.189,92.958 C389.176,92.299 386.681,91.881 385.629,90.93 C384.948,97.869 385.065,104.867 384.635,111.715 C384.176,119.105 379.551,123.186 377.436,129.824 C376.196,133.675 377.261,138.151 375.966,142.102 C376.914,130.043 376.121,120.682 371.68,110.205 C366.93,99.008 364.789,84.346 358.426,73.446 C356.342,74.248 353.208,86.147 352.057,88.323 C351.02,85.407 351.656,72.635 350.328,69.902 C341.027,88.687 321.239,106.657 300.01,110.492 C303.43,105.624 305.321,99.374 308.023,95.054 C302.578,98.099 294.867,104.859 287.803,103.666 C289.015,98.62 292.197,93.918 293.524,88.773 C287.946,90.14 283.538,97.591 278.635,99.874 C274.282,101.908 268.603,105.89 264.511,107.654 C264.54,105.532 264.803,97.155 265.051,95.026 C264.561,99.117 258.078,102.562 256.8,106.719 C255.157,112.049 256.762,117.975 254.073,123.296 C253.476,121.561 252.041,118.689 250.605,117.01 z" fill-opacity="0" stroke="#1A1919" stroke-width="5.374" stroke-linecap="round" stroke-linejoin="round"/>
    <g>
      <path d="M290.136,126.853 C288.996,116.731 272.338,118.052 271.326,126.124 M353.72,129.889 C352.582,119.767 339.96,118.31 334.93,126.246" fill-opacity="0" stroke="#1A1919" stroke-width="5.022" stroke-linecap="round" stroke-linejoin="round"/>
      <path d="M334.993,169.013 C334.717,163.63 292.965,162.354 292.794,169.605 C292.234,192.635 336.169,191.629 334.993,169.013" fill="#FFFFFE"/>
      <path d="M296.684,175.931 C308.032,172.754 321.62,172.97 331.686,177.365 C325.391,190.167 301.601,188.679 295.59,175.993" fill="#F0AFA6"/>
      <path d="M334.454,169.041 C334.172,163.66 292.426,162.384 292.249,169.633 C291.685,192.667 335.627,191.661 334.454,169.041 z" fill-opacity="0" stroke="#1A1919" stroke-width="5.022" stroke-linecap="round" stroke-linejoin="round"/>
      <path d="M418.566,413.052 L414.3,464.943 L451.687,464.943 L454.338,401.93 z" fill="#F9D6AE"/>
      <path d="M418.566,413.052 L414.3,464.943 L451.687,464.943 L454.338,401.93 L418.566,413.052 z" fill-opacity="0" stroke="#1A1919" stroke-width="5.621" stroke-linecap="round" stroke-linejoin="round"/>
      <path d="M423.104,423.252 L450.911,414.119 L450.254,431.314 z" fill="#F3B882"/>
      <g>
        <path d="M346.832,308.103 L283.63,308.103 L283.63,241.54 L346.832,241.54 z" fill="#FFFFFE"/>
        <path d="M346.832,308.103 L283.63,308.103 L283.63,241.54 L346.832,241.54 z" fill-opacity="0" stroke="#1A1919" stroke-width="3.477" stroke-linecap="round" stroke-linejoin="round"/>
      </g>
      <path d="M295.882,255.24 L307.255,270.966 L323.649,270.632 L333.684,253.904 L323.779,239.933 L309.364,239.933 z" fill="#636463"/>
      <path d="M295.882,255.24 L307.255,270.966 L323.649,270.632 L333.684,253.904 L323.779,239.933 L309.364,239.933 L295.882,255.24 z" fill-opacity="0" stroke="#1A1919" stroke-width="5.621" stroke-linecap="round" stroke-linejoin="round"/>
      <path d="M306.911,270.211 L293.601,355.59 L314.244,394.052 L331.764,353.603 L322.892,270.211 z" fill="#636463"/>
      <path d="M306.911,270.211 L293.601,355.59 L314.244,394.052 L331.764,353.603 L322.892,270.211 L306.911,270.211 z" fill-opacity="0" stroke="#1A1919" stroke-width="5.621" stroke-linecap="round" stroke-linejoin="round"/>
      <path d="M348.621,203.694 L317.434,238.161 L354.171,275.55 L361.575,210.01 L347.901,196.257 z" fill="#FFFFFE"/>
      <path d="M348.621,203.694 L317.434,238.161 L354.171,275.55 L361.575,210.01 L347.901,196.257 L348.621,203.694 z" fill-opacity="0" stroke="#1A1919" stroke-width="5.621" stroke-linecap="round" stroke-linejoin="round"/>
      <path d="M314.16,464.943 L418.429,464.943 L420.446,421.209 L462.012,407.368 L456.575,259.111 L448.579,250.313 L355.177,207.454 L314.448,363.342 z" fill="#598EB3"/>
      <path d="M425.868,294.136 L418.752,441.352 M314.16,464.943 L417.057,464.943 L420.446,421.209 L462.012,407.368 L456.575,259.111 L448.58,250.313 L356.457,206.172 L314.448,363.342 L314.16,464.943 z M315.45,358.855 C324.232,334.015 355.3,272.923 386.525,291.257 L376.89,216.751" fill-opacity="0" stroke="#1A1919" stroke-width="5.621" stroke-linecap="round" stroke-linejoin="round"/>
      <path d="M281.69,204.414 L310.32,238.161 L273.585,275.55 L266.179,210.01 L279.291,197.937 z" fill="#FFFFFE"/>
      <path d="M281.69,204.414 L310.32,238.161 L273.585,275.55 L266.179,210.01 L279.291,197.937 L281.69,204.414 z" fill-opacity="0" stroke="#1A1919" stroke-width="5.621" stroke-linecap="round" stroke-linejoin="round"/>
      <g>
        <path d="M398.763,356.133 L360.115,356.133 L360.115,334.794 L398.763,334.794 z" fill="#FFFFFE"/>
        <path d="M398.763,356.133 L360.115,356.133 L360.115,334.794 L398.763,334.794 z" fill-opacity="0" stroke="#1A1919" stroke-width="4.015" stroke-linecap="round" stroke-linejoin="round"/>
      </g>
      <path d="M354.095,323.568 L405.281,323.568" fill-opacity="0" stroke="#1A1919" stroke-width="5.621" stroke-linecap="round" stroke-linejoin="round"/>
      <path d="M395.913,304.33 C395.913,302.766 394.633,301.486 393.069,301.486 L392.404,301.486 C390.837,301.486 389.557,302.766 389.557,304.33 L389.557,322.226 L395.913,322.226 z" fill="#FFFFFE"/>
      <path d="M395.913,304.33 C395.913,302.766 394.633,301.486 393.069,301.486 L392.404,301.486 C390.837,301.486 389.557,302.766 389.557,304.33 L389.557,322.226 L395.913,322.226 L395.913,304.33 z" fill-opacity="0" stroke="#1A1919" stroke-width="4.015"/>
      <path d="M400.264,331.427 C400.264,332.991 398.984,334.273 397.418,334.273 L396.75,334.273 C395.188,334.273 393.908,332.991 393.908,331.427 L393.908,304.33 C393.908,302.766 395.188,301.486 396.75,301.486 L397.418,301.486 C398.984,301.486 400.264,302.766 400.264,304.33 z" fill="#FFFFFE"/>
      <path d="M400.264,331.427 C400.264,332.991 398.984,334.273 397.418,334.273 L396.75,334.273 C395.188,334.273 393.908,332.991 393.908,331.427 L393.908,304.33 C393.908,302.766 395.188,301.486 396.75,301.486 L397.418,301.486 C398.984,301.486 400.264,302.766 400.264,304.33 L400.264,331.427 z" fill-opacity="0" stroke="#1A1919" stroke-width="4.015"/>
      <path d="M376.513,347.485 C376.513,349.049 375.233,350.331 373.668,350.331 L370.658,350.331 C369.091,350.331 367.81,349.049 367.81,347.485 L367.81,344.476 C367.81,342.912 369.091,341.632 370.658,341.632 L373.668,341.632 C375.233,341.632 376.513,342.912 376.513,344.476 z" fill="#777776"/>
      <path d="M390.561,347.485 C390.561,349.049 389.281,350.331 387.717,350.331 L384.706,350.331 C383.141,350.331 381.863,349.049 381.863,347.485 L381.863,344.476 C381.863,342.912 383.141,341.632 384.706,341.632 L387.717,341.632 C389.281,341.632 390.561,342.912 390.561,344.476 z" fill="#777776"/>
    </g>
    <path d="M34.352,465.263 L502.629,465.263" fill-opacity="0" stroke="#1A1919" stroke-width="5.374" stroke-linecap="round" stroke-linejoin="round"/>
    <g>
      <path d="M209.832,413.052 L214.098,464.943 L176.711,464.943 L174.458,401.93 z" fill="#F9D6AE"/>
      <path d="M209.832,413.052 L214.098,464.943 L176.711,464.943 L174.458,401.93 L209.832,413.052 z" fill-opacity="0" stroke="#1A1919" stroke-width="5.374" stroke-linecap="round" stroke-linejoin="round"/>
      <path d="M314.235,464.943 L209.966,464.943 L207.951,421.209 L166.384,407.368 L171.821,259.111 L179.816,250.313 L273.218,207.454 L313.949,363.342 z" fill="#598EB3"/>
      <path d="M202.527,294.136 C202.527,294.136 209.724,440.303 209.885,441.433 M314.235,464.943 L211.34,464.943 L207.951,421.209 L166.384,407.368 L171.821,259.111 L179.816,250.313 L271.938,206.172 L313.949,363.342 L314.235,464.943 z M312.947,358.855 C304.163,334.015 273.097,272.923 241.87,291.257 L251.506,216.751" fill-opacity="0" stroke="#1A1919" stroke-width="5.621" stroke-linecap="round" stroke-linejoin="round"/>
      <path d="M178.055,414.324 L205.403,423.44 L206.122,436.634 z" fill="#F3B882"/>
      <g>
        <path d="M100.713,436.032 L81.669,436.032 L81.669,321.294 L100.713,321.294 z" fill="#F5F0D1"/>
        <path d="M100.713,436.032 L81.669,436.032 L81.669,321.294 L100.713,321.294 z" fill-opacity="0" stroke="#1A1919" stroke-width="5.374" stroke-linecap="round" stroke-linejoin="round"/>
      </g>
      <g>
        <path d="M24.399,231.436 L154.146,231.436 L154.146,322.674 L24.399,322.674 z" fill="#F5F0D1"/>
        <path d="M24.399,231.436 L154.146,231.436 L154.146,322.674 L24.399,322.674 z" fill-opacity="0" stroke="#1A1919" stroke-width="5.374" stroke-linecap="round" stroke-linejoin="round"/>
      </g>
      <path d="M2.687,340.647 L220.514,340.647 L220.514,495.477 L2.687,495.477 z" fill="#F5F0D1"/>
    </g>
    <path d="M2.687,340.647 L220.514,340.647 L220.514,495.477 L2.687,495.477 z" fill-opacity="0" stroke="#1A1919" stroke-width="5.374" stroke-linecap="round" stroke-linejoin="round"/>
    <path d="M34.076,239.731 L144.47,239.731 L144.47,314.379 L34.076,314.379 z" fill="#A3C3CE"/>
    <path d="M217.746,362.08 L2.686,362.08 M34.075,239.73 L144.469,239.73 L144.469,314.378 L34.075,314.378 z" fill-opacity="0" stroke="#1A1919" stroke-width="5.374" stroke-linecap="round" stroke-linejoin="round"/>
    <g>
      <path d="M147.234,237.656 L92.534,237.656 L91.641,239.738 L36.84,289.061 L36.84,312.308 L82.567,312.308 L147.234,252.115 z" fill="#E2F3F8"/>
      <path d="M34.076,239.731 L144.47,239.731 L144.47,314.379 L34.076,314.379 z" fill-opacity="0" stroke="#1A1919" stroke-width="5.374" stroke-linecap="round" stroke-linejoin="round"/>
      <path d="M888.807,775.485 C888.807,775.485 819.057,826.483 873.802,944.995 L1014.8,970.483 C1014.8,970.483 1081.555,892.485 1070.305,839.245 C1059.055,785.997 1027.555,767.983 1027.555,767.983 L981.451,783.1 L942.062,809.235 L930.404,781.286 z" fill="#FFFFFE"/>
      <path d="M927.169,781.483 L943.046,807.372 L975.615,778.987 z" fill="#F8D4B6"/>
      <path d="M952.229,958.53 L943.046,958.53 L943.046,807.372 L952.229,807.372 z" fill="#446CA7"/>
      <path d="M879.695,965.21 L870.287,965.21 L870.287,793.19 L880.412,788.177 z" fill="#57C0D4"/>
      <path d="M908.079,965.21 L898.679,965.21 L898.679,781.483 L908.079,781.483 z" fill="#57C0D4"/>
      <path d="M936.472,965.21 L927.064,965.21 L927.064,781.483 L936.472,781.483 z" fill="#57C0D4"/>
      <path d="M979.89,965.21 L970.482,965.21 L970.482,781.483 L979.89,781.483 z" fill="#57C0D4"/>
      <path d="M1007.446,965.21 L998.037,965.21 L998.037,781.483 L1007.446,781.483 z" fill="#57C0D4"/>
      <path d="M1038.333,924.288 L1028.933,924.288 L1028.933,768.968 L1036.555,778.495 z" fill="#57C0D4"/>
      <path d="M1063.294,808.216 C1063.294,808.216 1048.269,801.536 1038.25,813.229 C1028.23,824.901 1007.333,866.667 1007.333,866.667 L940.537,973.556 L909.641,868.333 C909.641,868.333 879.568,806.528 862.04,817.391 C862.04,817.391 852.013,848.294 852.013,864.149 C852.013,880.026 899.615,980.235 899.615,980.235 L1006.51,975.229 C1006.51,975.229 1054.105,918.431 1064.961,880.026 C1075.818,841.614 1063.294,808.216 1063.294,808.216" fill="#446CA7"/>
      <path d="M903.79,785.667 L892.935,814.052 L943.046,807.372 L1016.53,810.712 L1009.013,771.464 L975.615,778.987 L948.889,803.21 L927.169,781.483 z" fill="#446CA7"/>
      <path d="M884.582,778.987 C884.582,778.987 820.287,834.091 874.562,934.307 M907.974,869.177 L940.537,971.889 L1010.687,867.489 M1024.883,768.124 C1024.883,768.124 1081.674,795.827 1068.308,870.85 C1057.445,931.811 1003.17,978.569 1003.17,978.569 M1009.013,776.47 L1013.19,809.868 L947.208,808.216 L892.105,814.882 L903.79,784.823 M928.843,785.667 L947.208,808.216 L973.935,783.149" fill-opacity="0" stroke="#563E26" stroke-width="9" stroke-linecap="round" stroke-linejoin="round"/>
      <path d="M857.982,673.764 C857.982,673.764 828.5,719.972 838.33,743.584 C848.16,767.152 878.633,778.966 894.362,779.936 C910.091,780.933 945.479,783.873 945.479,783.873 L997.58,776.013 L1046.736,752.423 C1046.736,752.423 1077.209,738.641 1081.147,727.847 C1085.078,717.019 1078.194,698.339 1067.372,697.367 C1056.566,696.384 1046.736,703.26 1046.736,703.26 C1046.736,703.26 1025.101,695.398 1019.208,683.607 C1013.31,671.81 1006.433,643.297 1006.433,643.297 C1006.433,643.297 934.672,692.445 857.982,673.764" fill="#F8D4B6"/>
      <path d="M1099.329,681.639 L1085.078,726.864 C1085.078,726.864 1079.67,695.891 1069.341,694.907 C1059.027,693.923 1046.736,703.261 1046.736,703.261 C1046.736,703.261 1031.007,695.891 1025.101,689.985 C1019.208,684.1 1001.026,642.806 1001.026,642.806 C1001.026,642.806 957.777,673.286 919.92,674.763 C882.079,676.226 857.982,673.765 857.982,673.765 L838.822,711.114 C838.822,711.114 830.455,672.794 831.439,661.495 C832.438,650.175 860.451,607.403 891.415,596.61 C922.375,585.782 974.968,582.829 1002.496,584.798 C1030.023,586.788 1058.042,609.393 1058.042,609.393 C1058.042,609.393 1072.287,588.243 1089.507,590.212 C1106.699,592.181 1136.195,629.046 1131.765,643.298 C1127.349,657.558 1105.721,681.147 1099.329,681.639" fill="#896447"/>
      <path d="M907.482,641.997 C886.044,650.14 864.908,646.87 860.289,634.685 C855.662,622.507 869.295,606.032 890.741,597.897 C912.201,589.755 933.315,593.024 937.949,605.21 C942.576,617.388 928.935,633.876 907.482,641.997" fill="#A9826E"/>
      <path d="M970.363,651.559 C957.805,656.327 944.958,653.198 941.682,644.563 C938.406,635.936 945.943,625.073 958.494,620.305 C971.066,615.545 983.905,618.674 987.181,627.301 C990.451,635.936 982.92,646.799 970.363,651.559" fill="#A9826E"/>
      <path d="M1045.794,738.347 C1045.794,756.501 1031.091,771.196 1012.958,771.196 C994.81,771.196 980.101,756.501 980.101,738.347 C980.101,720.22 994.81,705.511 1012.958,705.511 C1031.091,705.511 1045.794,720.22 1045.794,738.347" fill="#EB98AF"/>
      <path d="M859.81,705.511 C852.772,705.511 846.248,707.739 840.904,711.522 C836.734,722.843 833.049,738.663 840.623,747.452 C851.267,759.806 857.659,765.325 868.17,770.093 C882.261,766.401 892.674,753.604 892.674,738.347 C892.674,720.22 877.958,705.511 859.81,705.511" fill="#EB98AF"/>
    </g>
    <path d="M856.281,677.702 C856.281,677.702 809.291,747.452 864.373,770.704 C919.463,793.942 1003.86,787.882 1044.795,753.513 C1044.795,753.513 1093.297,741.032 1080.662,711.065 C1068.533,682.272 1043.277,704.505 1043.277,704.505" fill-opacity="0" stroke="#563E26" stroke-width="9" stroke-linecap="round" stroke-linejoin="round"/>
    <g>
      <path d="M890.079,709.04 C890.079,719.186 884.687,727.413 878.014,727.413 C871.349,727.413 865.949,719.186 865.949,709.04 C865.949,698.901 871.349,690.675 878.014,690.675 C884.687,690.675 890.079,698.901 890.079,709.04" fill="#563E26"/>
      <path d="M861.758,683.327 C861.758,683.327 864.373,693.817 875.919,694.345" fill-opacity="0" stroke="#563E26" stroke-width="9" stroke-linecap="round" stroke-linejoin="round"/>
      <path d="M1003.283,709.04 C1003.283,719.186 997.89,727.413 991.224,727.413 C984.552,727.413 979.152,719.186 979.152,709.04 C979.152,698.901 984.552,690.675 991.224,690.675 C997.89,690.675 1003.283,698.901 1003.283,709.04" fill="#563E26"/>
    </g>
    <g clip-path="url(#Clip_1)">
      <path d="M838.878,706.108 C838.878,706.108 800.945,626.915 904.023,593.938 C1007.108,560.962 1057.416,611.27 1057.416,611.27 C1057.416,611.27 1078.025,574.145 1111.838,605.491 C1145.659,636.829 1122.561,675.571 1097.818,680.528 C1097.818,680.528 1095.35,705.278 1083.805,724.249 M847.119,671.479 C847.119,671.479 932.872,696.208 1002.988,641.772 C1002.988,641.772 1013.704,697.86 1044.226,701.151 M905.302,740.364 C905.302,740.364 921.482,757.05 937.654,756.536 C953.818,756.044 967.466,739.872 967.466,739.872 M937.654,710.046 C937.654,710.046 922.494,714.089 925.018,721.682 C927.542,729.255 938.146,728.749 938.146,728.749 M974.961,683.327 C974.961,683.327 977.57,693.817 989.115,694.345" fill-opacity="0" stroke="#563E26" stroke-width="9" stroke-linecap="round" stroke-linejoin="round"/>
      <path d="M607.937,977.985 L1132.187,977.985 L1132.187,1073.61 L610.187,1073.61 z" fill="#FFFFFE"/>
      <path d="M607.937,977.985 L1132.187,977.985" fill-opacity="0" stroke="#563E26" stroke-width="9" stroke-linecap="round" stroke-linejoin="round"/>
    </g>
    <g>
      <path d="M825.062,973.485 L631.562,973.485 L631.562,899.235 L825.062,899.235 z" fill="#B2B3B1"/>
      <path d="M631.562,973.485 C631.562,973.485 629.312,1054.485 631.562,1054.485 L825.062,1054.485 L825.062,973.485 L902.687,939.735 L864.437,884.61 L825.062,899.235" fill="#B2B3B1"/>
      <path d="M825.062,1054.485 L952.187,994.86 L951.062,917.235 L902.687,939.735 L825.062,973.485 z" fill="#B2B3B1"/>
      <path d="M831.812,863.235 L663.062,863.235 L663.062,792.36 L831.812,792.36 z" fill="#B2B3B1"/>
      <path d="M817.187,840.735 L676.562,840.735 L676.562,803.61 L817.187,803.61 z" fill="#818483"/>
      <path d="M864.437,884.61 L830.687,902.61 L631.562,899.235 L668.687,884.61 z" fill="#B2B3B1"/>
      <path d="M885.06,946.485 L951.062,917.235 L892.562,917.235" fill="#B2B3B1"/>
    </g>
    <path d="M817.187,840.735 L676.562,840.735 L676.562,803.61 L817.187,803.61 z M831.812,863.235 L663.062,863.235 L663.062,792.36 L831.812,792.36 z M902.687,939.735 L951.062,917.235 L952.187,994.86 L825.062,1054.485 M631.562,973.485 C631.562,973.485 629.312,1054.485 631.562,1054.485 L825.062,1054.485 L825.062,973.485 L902.687,939.735 L864.437,884.61 L825.062,899.235 M864.437,884.61 L668.687,884.61 L631.562,899.235 M825.062,973.485 L631.562,973.485 L631.562,899.235 L825.062,899.235 z M950.31,917.235 L951.062,917.235 L892.562,917.235" fill-opacity="0" stroke="#563E26" stroke-width="9" stroke-linecap="round" stroke-linejoin="round"/>
    <g>
      <g>
        <path d="M757.562,890.235 L732.812,890.235 L732.812,865.485 L757.562,865.485 z" fill="#B2B3B1"/>
        <path d="M757.562,890.235 L732.812,890.235 L732.812,865.485 L757.562,865.485 z" fill-opacity="0" stroke="#563E26" stroke-width="9" stroke-linecap="round" stroke-linejoin="round"/>
      </g>
      <path d="M294.061,793.173 C294.061,793.173 215.352,860.536 270.602,980.14 L458.313,974.832 C458.313,974.832 502.969,911.996 491.616,858.266 C480.262,804.527 439.388,785.602 439.388,785.602 L387.565,800.858 L347.807,827.234 L336.048,799.026 z" fill="#FFFFFE"/>
      <path d="M336.048,799.027 L353.54,827.539 L389.41,796.26 z" fill="#F8D4B6"/>
      <path d="M363.645,994.049 L353.54,994.049 L353.54,827.539 L363.645,827.539 z" fill="#446CA7"/>
      <path d="M283.743,1001.407 L273.383,1001.407 L273.383,811.906 L284.539,806.393 z" fill="#57C0D4"/>
      <path d="M315.017,1001.407 L304.656,1001.407 L304.656,799.026 L315.017,799.026 z" fill="#57C0D4"/>
      <path d="M346.281,1001.407 L335.927,1001.407 L335.927,799.026 L346.281,799.026 z" fill="#57C0D4"/>
      <path d="M394.129,1001.407 L383.755,1001.407 L383.755,799.026 L394.129,799.026 z" fill="#57C0D4"/>
      <path d="M424.473,1001.407 L414.112,1001.407 L414.112,799.026 L424.473,799.026 z" fill="#57C0D4"/>
      <path d="M458.505,956.334 L448.138,956.334 L448.138,785.226 L458.313,793.174 z" fill="#57C0D4"/>
      <path d="M486.003,828.462 C486.003,828.462 469.447,821.118 458.406,833.975 C447.364,846.855 424.358,892.859 424.358,892.859 L350.772,1010.619 L316.74,894.704 C316.74,894.704 283.615,826.617 264.3,838.574 C264.3,838.574 253.252,872.636 253.252,890.092 C253.252,907.584 305.685,1017.963 305.685,1017.963 L423.451,1012.442 C423.451,1012.442 475.875,949.89 487.841,907.584 C499.804,865.255 486.003,828.462 486.003,828.462" fill="#446CA7"/>
      <path d="M310.289,803.626 L298.34,834.898 L353.539,827.539 L434.486,831.23 L426.203,787.979 L389.41,796.26 L359.97,822.941 L336.047,799.027 z" fill="#446CA7"/>
    </g>
    <path d="M289.122,796.26 C289.122,796.26 218.304,856.968 278.088,967.367 M314.895,895.627 L350.772,1008.773 L428.057,893.76 M443.689,784.304 C443.689,784.304 506.255,814.817 491.523,897.471 C479.553,964.615 419.774,1016.13 419.774,1016.13 M426.203,793.514 L430.802,830.307 L358.131,828.462 L297.41,835.82 L310.289,802.703 M337.902,803.626 L358.131,828.462 L387.565,800.859" fill-opacity="0" stroke="#563E26" stroke-width="9.083" stroke-linecap="round" stroke-linejoin="round"/>
    <g>
      <path d="M295.048,655.829 C295.048,655.829 260.767,673.569 253.599,689.216 L246.418,704.863 C246.418,704.863 234.029,693.119 235.994,678.771 C237.944,664.437 253.968,646.675 253.968,646.675 C253.968,646.675 238.669,598.94 241.572,600.395 C244.46,601.814 272.503,608.342 272.503,608.342 C272.503,608.342 267.366,589.8 270.283,589.942 C273.17,590.084 298.958,597.769 298.958,597.769 L302.505,582.243 L325.333,594.647 C325.333,594.647 362.516,588.119 408.826,586.82 C455.12,585.507 487.074,600.515 500.117,624.642 C513.165,648.768 517.729,674.208 517.729,696.383 C517.729,718.558 506.446,739.265 506.446,739.265 C506.446,739.265 505.992,706.162 494.255,702.911 C482.51,699.647 471.705,709.759 471.705,709.759 C471.705,709.759 459.031,679.445 426.431,660.534 C393.825,641.601 362.226,642.758 362.226,642.758 L349.46,621.378 L338.744,638.869 L322.431,624.522 L315.265,645.384 L294.402,629.737 z" fill="#565856"/>
      <path d="M491.105,705.289 C483.235,704.578 475.891,707.581 471.705,709.758 C466.971,699.917 455.893,680.19 437.87,666.921 C413.09,648.648 362.226,642.758 362.226,642.758 L345.273,621.236 L338.744,638.869 L322.431,624.521 L317.876,648.008 L296.999,629.077 L295.048,655.828 C295.048,655.828 281.359,663.635 270.915,669.523 C266.77,671.831 262.577,675.591 258.978,679.266 C258.552,679.176 258.113,679.089 257.701,678.997 C257.701,678.997 256.587,680.758 254.842,683.752 C251.577,687.463 249.398,690.387 249.398,690.387 L251.108,690.458 C242.14,707.154 228.046,738.214 235.789,756.792 C246.744,783.096 280.699,796.245 298.241,797.346 C315.768,798.445 355.223,801.724 355.223,801.724 L413.303,792.947 L468.099,766.656 C468.099,766.656 502.061,751.305 506.446,739.265 C510.832,727.201 503.161,706.388 491.105,705.289" fill="#F8D4B6"/>
      <path d="M467.041,750.973 C467.041,771.197 450.657,787.567 430.434,787.567 C410.21,787.567 393.818,771.197 393.818,750.973 C393.818,730.763 410.21,714.372 430.434,714.372 C450.657,714.372 467.041,730.763 467.041,750.973" fill="#EB98AF"/>
      <path d="M259.738,714.371 C251.882,714.371 244.624,716.854 238.662,721.076 C234,733.672 229.899,751.328 238.336,761.12 C250.208,774.886 257.346,781.039 269.069,786.346 C284.751,782.232 296.375,767.982 296.375,750.972 C296.375,730.763 279.962,714.371 259.738,714.371" fill="#EB98AF"/>
    </g>
    <path d="M255.8,683.383 C255.8,683.383 203.423,761.12 264.818,787.036 C326.22,812.935 420.294,806.18 465.928,767.862 C465.928,767.862 519.979,753.968 505.922,720.544 C492.396,688.456 464.225,713.237 464.225,713.237" fill-opacity="0" stroke="#563E26" stroke-width="9.083" stroke-linecap="round" stroke-linejoin="round"/>
    <g>
      <path d="M293.472,718.295 C293.472,729.613 287.462,738.767 280.025,738.767 C272.602,738.767 266.571,729.613 266.571,718.295 C266.571,707.013 272.602,697.823 280.025,697.823 C287.462,697.823 293.472,707.013 293.472,718.295" fill="#563E26"/>
      <path d="M419.654,718.295 C419.654,729.613 413.63,738.767 406.207,738.767 C398.777,738.767 392.753,729.613 392.753,718.295 C392.753,707.013 398.777,697.823 406.207,697.823 C413.63,697.823 419.654,707.013 419.654,718.295" fill="#563E26"/>
    </g>
    <g clip-path="url(#Clip_2)">
      <path d="M241.572,700.818 C241.572,700.818 225.272,665.608 253.968,646.675 L241.572,600.395 L272.219,610.826 L270.283,589.942 L298.958,597.769 L298.958,582.775 L323.085,595.818 C323.085,595.818 430.71,565.815 484.832,610.152 C538.976,654.516 509.619,734.063 509.619,734.063 M255.913,681.254 C255.913,681.254 276.13,660.37 295.048,655.829 L294.403,629.737 L315.265,645.384 L319.175,623.209 L338.745,638.869 L345.273,621.235 L362.226,642.758 C362.226,642.758 446.357,644.723 469.824,706.672 M310.446,753.223 C310.446,753.223 328.471,771.836 346.501,771.268 C364.519,770.7 379.733,752.677 379.733,752.677 M346.501,719.431 C346.501,719.431 329.599,723.937 332.423,732.381 C335.233,740.825 347.056,740.272 347.056,740.272" fill-opacity="0" stroke="#563E26" stroke-width="9.083" stroke-linecap="round" stroke-linejoin="round"/>
      <path d="M4.541,977.103 L533.625,977.103 L533.625,1073.61 L6.812,1073.61 z" fill="#FFFFFE"/>
      <path d="M4.541,977.103 L533.625,977.103" fill-opacity="0" stroke="#563E26" stroke-width="9.083" stroke-linecap="round" stroke-linejoin="round"/>
    </g>
    <g>
      <path d="M223.668,972.562 L28.384,972.562 L28.384,897.628 L223.668,897.628 z" fill="#B2B3B1"/>
      <path d="M28.384,972.562 C28.384,972.562 26.113,1054.309 28.384,1054.309 L223.668,1054.309 L223.668,972.562 L302.008,938.501 L263.406,882.868 L223.668,897.628" fill="#B2B3B1"/>
      <path d="M223.668,1054.309 L351.965,994.134 L350.83,915.794 L302.009,938.501 L223.668,972.562 z" fill="#B2B3B1"/>
      <path d="M230.48,861.296 L60.174,861.296 L60.174,789.768 L230.48,789.768 z" fill="#B2B3B1"/>
      <path d="M215.721,838.588 L73.8,838.588 L73.8,801.121 L215.721,801.121 z" fill="#818483"/>
      <path d="M263.406,882.868 L229.345,901.034 L28.384,897.628 L65.851,882.868 z" fill="#B2B3B1"/>
      <path d="M284.226,945.313 L350.829,915.793 L291.79,915.793" fill="#B2B3B1"/>
    </g>
    <path d="M215.721,838.588 L73.8,838.588 L73.8,801.121 L215.721,801.121 z M230.48,861.296 L60.174,861.296 L60.174,789.768 L230.48,789.768 z M302.009,938.501 L350.83,915.793 L351.965,994.134 L223.668,1054.309 M28.384,972.562 C28.384,972.562 26.114,1054.309 28.384,1054.309 L223.668,1054.309 L223.668,972.562 L302.009,938.501 L263.406,882.868 L223.668,897.627 M263.406,882.868 L65.852,882.868 L28.384,897.627 M223.668,972.562 L28.384,972.562 L28.384,897.628 L223.668,897.628 z M350.078,915.793 L350.83,915.793 L291.79,915.793" fill-opacity="0" stroke="#563E26" stroke-width="9.083" stroke-linecap="round" stroke-linejoin="round"/>
    <g>
      <path d="M155.546,888.544 L130.568,888.544 L130.568,863.566 L155.546,863.566 z" fill="#B2B3B1"/>
      <path d="M155.546,888.544 L130.568,888.544 L130.568,863.566 L155.546,863.566 z" fill-opacity="0" stroke="#563E26" stroke-width="9.083" stroke-linecap="round" stroke-linejoin="round"/>
    </g>
  </g>
</svg>
